HIERARCHY
ROOT hip
{
	OFFSET 0.000000 0.000000 0.000000
	CHANNELS 6 Xposition Yposition Zposition Xrotation Zrotation Yrotation 
	JOINT abdomen
	{
		OFFSET 0.000000 3.422050 0.000000
		CHANNELS 3 Xrotation Zrotation Yrotation 
		JOINT chest
		{
			OFFSET 0.000000 8.486693 -0.684411
			CHANNELS 3 Xrotation Zrotation Yrotation 
			JOINT neck
			{
				OFFSET 0.000000 10.266162 -0.273764
				CHANNELS 3 Xrotation Zrotation Yrotation 
				JOINT head
				{
					OFFSET 0.000000 3.148285 0.000000
					CHANNELS 3 Xrotation Zrotation Yrotation 
					End Site
					{
						OFFSET 0.000000 3.148289 0.000000
					}
				}
			}
			JOINT lCollar
			{
				OFFSET 3.422053 6.707223 -0.821293
				CHANNELS 3 Yrotation Zrotation Xrotation 
				JOINT lShldr
				{
					OFFSET 3.285171 0.000000 0.000000
					CHANNELS 3 Zrotation Yrotation Xrotation 
					JOINT lForeArm
					{
						OFFSET 10.129278 0.000000 0.000000
						CHANNELS 3 Yrotation Zrotation Xrotation 
						JOINT lHand
						{
							OFFSET 8.486692 0.000000 0.000000
							CHANNELS 3 Zrotation Yrotation Xrotation 
							End Site
							{
								OFFSET 4.106464 0.000000 0.000000
							}
						}
					}
				}
			}
			JOINT rCollar
			{
				OFFSET -3.558935 6.707223 -0.821293
				CHANNELS 3 Yrotation Zrotation Xrotation 
				JOINT rShldr
				{
					OFFSET -3.148289 0.000000 0.000000
					CHANNELS 3 Zrotation Yrotation Xrotation 
					JOINT rForeArm
					{
						OFFSET -10.266159 0.000000 0.000000
						CHANNELS 3 Yrotation Zrotation Xrotation 
						JOINT rHand
						{
							OFFSET -8.349810 0.000000 0.000000
							CHANNELS 3 Zrotation Yrotation Xrotation 
							End Site
							{
								OFFSET -4.106464 0.000000 0.000000
							}
						}
					}
				}
			}
		}
	}
	JOINT lThigh
	{
		OFFSET 5.338403 -1.642589 1.368821
		CHANNELS 3 Xrotation Zrotation Yrotation 
		JOINT lShin
		{
			OFFSET -2.053232 -20.121670 0.000000
			CHANNELS 3 Xrotation Zrotation Yrotation 
			JOINT lFoot
			{
				OFFSET 0.000000 -19.300380 -1.231939
				CHANNELS 3 Xrotation Yrotation Zrotation 
				End Site
				{
					OFFSET 0.000000 -2.463878 4.653993
				}
			}
		}
	}
	JOINT rThigh
	{
		OFFSET -5.338403 -1.642589 1.368821
		CHANNELS 3 Xrotation Zrotation Yrotation 
		JOINT rShin
		{
			OFFSET 2.053232 -20.121670 0.000000
			CHANNELS 3 Xrotation Zrotation Yrotation 
			JOINT rFoot
			{
				OFFSET 0.000000 -19.300380 -1.231939
				CHANNELS 3 Xrotation Yrotation Zrotation 
				End Site
				{
					OFFSET 0.000000 -2.463878 4.653993
				}
			}
		}
	}
}
MOTION
Frames: 16
Frame Time: 0.033264
0.000000 43.528500 0.000000 0.000000 0.000000 0.000000 0.000000 0.000000 0.000000 0.000000 0.000000 0.000000 0.000000 0.000000 0.000000 0.000000 0.000000 0.000000 0.000000 0.000000 0.000000 0.000000 0.000000 0.000000 0.000000 0.000000 0.000000 0.000000 0.000000 0.000000 0.000000 0.000000 0.000000 0.000000 0.000000 0.000000 0.000000 0.000000 0.000000 0.000000 0.000000 0.000000 0.000000 0.000000 0.000000 0.000000 0.000000 0.000000 0.000000 0.000000 0.000000 0.000000 0.000000 0.000000 0.000000 0.000000 0.000000 0.000000 0.000000 0.000000 
0.429528 42.744518 11.531345 39.997601 0.000000 0.000000 -1.275881 0.311817 -0.421402 -24.137077 1.539263 -1.875990 0.169973 0.263790 0.159506 0.316484 0.000000 0.000000 -5.868730 -27.176746 35.142715 -38.925274 -30.112902 -61.144749 -147.780640 -68.282570 -146.995041 38.798565 -43.125778 96.204063 2.794056 24.264826 36.276001 38.479473 29.318882 -61.660065 144.540573 69.531296 -144.017914 -30.835838 36.619007 101.416107 -66.856346 18.806223 8.521373 30.869968 -4.283531 1.824843 10.040592 10.911459 4.056544 -66.679794 -19.338999 -6.121525 29.413261 4.267155 -1.699958 12.317586 -12.682622 -1.880277 
0.429528 42.744518 11.712905 38.617989 0.000000 0.000000 -0.831830 0.311731 -0.421398 -22.594471 1.539382 -1.876133 0.300702 0.544338 0.277601 0.433193 0.000000 0.000000 -6.110719 -27.262899 34.754341 -38.925274 -30.112902 -61.144749 -147.036301 -68.602295 -146.312271 38.003830 -43.243183 96.539673 3.031090 24.375591 35.904930 38.479469 29.318882 -61.660072 144.540573 69.531296 -144.017899 -30.835838 36.619007 101.416107 -65.164948 19.073917 8.947120 30.869976 -4.283531 1.824843 9.601320 10.487265 4.101210 -65.000710 -19.630108 -6.595438 29.413261 4.267155 -1.699958 11.850180 -12.219126 -1.969724 
0.429528 42.744518 11.894464 37.235130 0.000000 0.000000 -0.387672 0.311644 -0.421394 -21.047329 1.539507 -1.876274 0.432118 0.824831 0.396435 0.549923 0.000000 0.000000 -6.353585 -27.347609 34.365204 -38.925278 -30.112902 -61.144749 -146.270569 -68.918739 -145.608063 37.206245 -43.357204 96.878250 3.269152 24.484962 35.532967 38.479473 29.318882 -61.660065 144.540573 69.531311 -144.017899 -30.835838 36.619007 101.416107 -63.463264 19.330423 9.383172 30.869968 -4.283531 1.824843 9.162776 10.062555 4.142530 -63.310711 -19.908859 -7.080641 29.413263 4.267155 -1.699958 11.384072 -11.754689 -2.055193 
0.429528 42.744518 12.076025 35.849419 0.000000 0.000000 0.056580 0.311557 -0.421391 -19.496185 1.539636 -1.876412 0.564227 1.105263 0.516013 0.666675 0.000000 0.000000 -6.597311 -27.430859 33.975307 -38.925278 -30.112902 -61.144749 -145.482666 -69.231766 -144.881638 36.405941 -43.467842 97.219780 3.508230 24.592947 35.160137 38.479469 29.318882 -61.660072 144.540573 69.531296 -144.017899 -30.835846 36.619015 101.416115 -61.751980 19.575249 9.829080 30.869976 -4.283531 1.824843 8.724935 9.637382 4.180511 -61.610527 -20.174730 -7.576641 29.413261 4.267155 -1.699958 10.919230 -11.289380 -2.136703 
0.429528 42.744518 12.257585 34.461269 0.000000 0.000000 0.500911 0.311471 -0.421389 -17.941595 1.539769 -1.876546 0.697034 1.385625 0.636339 0.783448 0.000000 0.000000 -6.841885 -27.512650 33.584694 -38.925270 -30.112898 -61.144741 -144.671890 -69.541183 -144.132263 35.603012 -43.575035 97.564133 3.748310 24.699526 34.786453 38.479473 29.318882 -61.660065 144.540558 69.531288 -144.017883 -30.835838 36.619007 101.416107 -60.031925 19.807951 10.284359 30.869968 -4.283531 1.824843 8.287771 9.211790 4.215166 -59.900932 -20.427225 -8.082907 29.413261 4.267155 -1.699958 10.455624 -10.823258 -2.214266 
0.429528 42.744518 12.439144 33.071064 0.000000 0.000000 0.945310 0.311384 -0.421387 -16.384125 1.539905 -1.876677 0.830543 1.665909 0.757418 0.900243 0.000000 0.000000 -7.087281 -27.592955 33.193344 -38.925274 -30.112902 -61.144749 -143.837509 -69.846878 -143.359253 34.797531 -43.678738 97.911255 3.989382 24.804682 34.411919 38.479473 29.318882 -61.660065 144.540573 69.531296 -144.017914 -30.835838 36.619007 101.416107 -58.303902 20.028103 10.748484 30.869968 -4.283530 1.824842 7.851258 8.785830 4.246500 -58.182816 -20.665899 -8.598866 29.413258 4.267155 -1.699958 9.993216 -10.356385 -2.287899 
0.429528 42.744518 12.620704 31.679207 0.000000 0.000000 1.389762 0.311297 -0.421386 -14.824335 1.540045 -1.876805 0.964761 1.946108 0.879256 1.017058 0.000000 0.000000 -7.333496 -27.671787 32.801304 -38.925274 -30.112902 -61.144749 -142.978683 -70.148552 -142.561752 33.989655 -43.778931 98.261047 4.231431 24.908421 34.036556 38.479473 29.318882 -61.660065 144.540573 69.531296 -144.017914 -30.835838 36.619007 101.416107 -56.568832 20.235317 11.220896 30.869968 -4.283531 1.824843 7.415373 8.359551 4.274525 -56.457016 -20.890303 -9.123898 29.413261 4.267155 -1.699958 9.531966 -9.888823 -2.357614 
0.429528 42.744518 12.802263 30.286125 0.000000 0.000000 1.834254 0.311211 -0.421386 -13.262814 1.540189 -1.876929 1.099692 2.226214 1.001857 1.133893 0.000000 0.000000 -7.580503 -27.749125 32.408577 -38.925274 -30.112902 -61.144749 -142.094727 -70.446091 -141.739059 33.179459 -43.875549 98.613388 4.474440 25.010721 33.660374 38.479473 29.318882 -61.660065 144.540573 69.531296 -144.017914 -30.835838 36.619007 101.416107 -54.827560 20.429218 11.700998 30.869968 -4.283531 1.824843 6.980089 7.933002 4.299248 -54.724461 -21.100050 -9.657355 29.413261 4.267155 -1.699958 9.071852 -9.420637 -2.423428 
0.429528 42.744518 12.983823 28.892220 0.000000 0.000000 2.278774 0.311124 -0.421387 -11.700122 1.540336 -1.877048 1.235341 2.506218 1.125226 1.250749 0.000000 0.000000 -7.828287 -27.824957 32.015179 -38.925274 -30.112902 -61.144749 -141.184814 -70.739243 -140.890366 32.367062 -43.968582 98.968208 4.718397 25.111572 33.283394 38.479473 29.318882 -61.660065 144.540573 69.531296 -144.017914 -30.835838 36.619007 101.416107 -53.081043 20.609482 12.188167 30.869976 -4.283531 1.824843 6.545381 7.506231 4.320680 -52.986103 -21.294779 -10.198547 29.413261 4.267155 -1.699958 8.612826 -8.951881 -2.485354 
0.429528 42.744518 13.165382 27.497889 0.000000 0.000000 2.723305 0.311037 -0.421388 -10.136854 1.540487 -1.877164 1.371713 2.786113 1.249367 1.367625 0.000000 0.000000 -8.076832 -27.899290 31.621140 -38.925274 -30.112902 -61.144749 -140.248230 -71.027840 -140.014938 31.552568 -44.057961 99.325363 4.963289 25.210968 32.905617 38.479469 29.318882 -61.660072 144.540604 69.531311 -144.017929 -30.835846 36.619011 101.416100 -51.330227 20.775805 12.681746 30.869968 -4.283531 1.824843 6.111224 7.079288 4.338828 -51.242916 -21.474165 -10.746755 29.413261 4.267155 -1.699958 8.154857 -8.482618 -2.543407 
0.429528 42.744518 13.346943 26.103569 0.000000 0.000000 3.167838 0.310951 -0.421390 -8.573582 1.540640 -1.877276 1.508816 3.065890 1.374287 1.484521 0.000000 0.000000 -8.326118 -27.972103 31.226463 -38.925270 -30.112898 -61.144741 -139.284134 -71.311630 -139.111954 30.736128 -44.143703 99.684830 5.209100 25.308897 32.527065 38.479473 29.318882 -61.660065 144.540573 69.531296 -144.017914 -30.835838 36.619007 101.416107 -49.576084 20.927931 13.181058 30.869968 -4.283531 1.824843 5.677593 6.652221 4.353703 -49.495899 -21.637920 -11.301229 29.413258 4.267155 -1.699957 7.697916 -8.012917 -2.597602 
0.429528 42.744518 13.528502 24.709658 0.000000 0.000000 3.612355 0.310864 -0.421392 -7.010895 1.540797 -1.877384 1.646652 3.345541 1.499991 1.601436 0.000000 0.000000 -8.576132 -28.043404 30.831184 -38.925274 -30.112902 -61.144749 -138.291824 -71.590424 -138.180710 29.917828 -44.225735 100.046425 5.455812 25.405355 32.147766 38.479473 29.318882 -61.660065 144.540573 69.531296 -144.017914 -30.835838 36.619007 101.416107 -47.819622 21.065636 13.685404 30.869968 -4.283530 1.824843 5.244462 6.225078 4.365314 -47.746067 -21.785799 -11.861187 29.413258 4.267155 -1.699958 7.241962 -7.542831 -2.647953 
0.429528 42.744518 13.710062 23.316572 0.000000 0.000000 4.056849 0.310777 -0.421395 -5.449366 1.540956 -1.877486 1.785228 3.625060 1.626482 1.718371 0.000000 0.000000 -8.826845 -28.113163 30.435310 -38.925274 -30.112902 -61.144749 -137.270569 -71.863914 -137.220474 29.097805 -44.304043 100.410080 5.703417 25.500334 31.767723 38.479473 29.318882 -61.660065 144.540573 69.531296 -144.017914 -30.835838 36.619007 101.416107 -46.061836 21.188734 14.194056 30.869968 -4.283531 1.824843 4.811806 5.797908 4.373668 -45.994484 -21.917612 -12.425844 29.413261 4.267155 -1.699958 6.786962 -7.072423 -2.694473 
0.429528 42.744518 13.891622 21.924725 0.000000 0.000000 4.501301 0.310691 -0.421399 -3.889579 1.541118 -1.877585 1.924549 3.904435 1.753766 1.835324 0.000000 0.000000 -9.078251 -28.181402 30.038864 -38.925274 -30.112902 -61.144749 -136.219681 -72.131935 -136.230530 28.276167 -44.378586 100.775658 5.951890 25.593811 31.386946 38.479473 29.318882 -61.660065 144.540573 69.531296 -144.017914 -30.835838 36.619007 101.416107 -44.303757 21.297085 14.706277 30.869968 -4.283531 1.824843 4.379600 5.370759 4.378775 -44.242191 -22.033201 -12.994379 29.413261 4.267155 -1.699958 6.332885 -6.601758 -2.737179 
0.429528 42.744518 14.073181 20.534517 0.000000 0.000000 4.945698 0.310604 -0.421403 -2.332106 1.541282 -1.877679 2.064621 4.183661 1.881848 1.952297 0.000000 0.000000 -9.330326 -28.248095 29.641857 -38.925274 -30.112902 -61.144749 -135.138412 -72.394203 -135.210159 27.453074 -44.449371 101.143097 6.201221 25.685797 31.005463 38.479473 29.318882 -61.660065 144.540573 69.531296 -144.017914 -30.835842 36.619015 101.416115 -42.546402 21.390589 15.221332 30.869968 -4.283531 1.824843 3.947822 4.943681 4.380645 -42.490276 -22.132458 -13.565962 29.413261 4.267155 -1.699958 5.879694 -6.130893 -2.776082 
